<svg xmlns="http://www.w3.org/2000/svg" id="Capa_1" height="512" viewBox="0 0 512 512" width="512"><g><path d="m15 271h-15v221.941l101.889-175.045c-18.772-28.166-50.497-46.896-86.889-46.896z"></path><path d="m89.35 481.119c30.976 20.21 91.227 30.881 136.65 30.881 40.225 0 98.559-8.101 129.394-25.898 38.642-22.31 82.426-34.102 126.606-34.102 16.538 0 30-13.462 30-30v-66.068c0-121.641-33.589-259.032-85.591-348.476l-4.336-7.456h-90.073l-30 30v31l30 30 30-30 30.146 30.132c-.747 3.706-1.699 8.13-2.798 13.257-8.54 39.639-25.913 120.454-27.261 241.611h-4.38c-17.271-29.121-84.145-45-131.708-45-27.288 0-61.463 4.832-87.514 13.766l-114.335 196.309c25.34-2.226 48.241-12.945 65.2-29.956z"></path></g></svg>